<svg id="Icon_awesome-instagram" data-name="Icon awesome-instagram" xmlns="http://www.w3.org/2000/svg" width="124.283" height="124.255" viewBox="0 0 124.283 124.255">
  <path id="Icon_awesome-instagram-2" data-name="Icon awesome-instagram" d="M62.15,32.508A31.858,31.858,0,1,0,94.008,64.365,31.807,31.807,0,0,0,62.15,32.508Zm0,52.569A20.712,20.712,0,1,1,82.862,64.365,20.749,20.749,0,0,1,62.15,85.077ZM102.742,31.2a7.431,7.431,0,1,1-7.431-7.431A7.413,7.413,0,0,1,102.742,31.2Zm21.1,7.542c-.471-9.954-2.745-18.771-10.037-26.035C106.54,5.447,97.723,3.173,87.769,2.674c-10.259-.582-41.007-.582-51.266,0-9.926.471-18.743,2.745-26.035,10.009S.93,28.765.431,38.719c-.582,10.259-.582,41.007,0,51.266C.9,99.938,3.176,108.755,10.468,116.02S26.55,125.557,36.5,126.056c10.259.582,41.007.582,51.266,0,9.954-.471,18.771-2.745,26.035-10.037,7.264-7.264,9.538-16.081,10.037-26.035.582-10.259.582-40.979,0-51.238Zm-13.253,62.246A20.969,20.969,0,0,1,98.777,112.8c-8.179,3.244-27.588,2.5-36.626,2.5s-28.475.721-36.626-2.5a20.969,20.969,0,0,1-11.811-11.811c-3.244-8.179-2.5-27.588-2.5-36.626s-.721-28.475,2.5-36.626A20.969,20.969,0,0,1,25.524,15.928c8.179-3.244,27.588-2.5,36.626-2.5s28.475-.721,36.626,2.5a20.969,20.969,0,0,1,11.811,11.811c3.244,8.179,2.5,27.588,2.5,36.626S113.832,92.84,110.588,100.992Z" transform="translate(0.005 -2.238)" fill="#fff"/>
</svg>
