<svg id="Icon_awesome-linkedin" data-name="Icon awesome-linkedin" xmlns="http://www.w3.org/2000/svg" width="124.255" height="124.255" viewBox="0 0 124.255 124.255">
  <path id="Icon_awesome-linkedin-2" data-name="Icon awesome-linkedin" d="M115.38,2.25H8.848A8.914,8.914,0,0,0,0,11.209V117.547a8.914,8.914,0,0,0,8.848,8.959H115.38a8.937,8.937,0,0,0,8.875-8.959V11.209A8.937,8.937,0,0,0,115.38,2.25Zm-77.826,106.5H19.138v-59.3H37.582v59.3Zm-9.208-67.4A10.678,10.678,0,1,1,39.024,30.679,10.683,10.683,0,0,1,28.346,41.357Zm78.242,67.4H88.171V79.91c0-6.878-.139-15.726-9.569-15.726-9.6,0-11.066,7.489-11.066,15.227v29.344H49.12v-59.3H66.787v8.1h.25c2.468-4.66,8.487-9.569,17.446-9.569,18.638,0,22.105,12.287,22.105,28.263Z" transform="translate(0 -2.25)" fill="#fff"/>
</svg>
